<svg width="96" height="86" viewBox="0 0 96 86" fill="none" xmlns="http://www.w3.org/2000/svg">
<path d="M13.405 64.1111C9.89483 65.2419 5.8385 67.8596 5.07511 72.0864C4.29515 76.405 9.76899 77.9421 13.172 79.1235C20.0609 81.5148 25.0947 79.9048 29.7154 75.2531C34.0363 70.9032 38.8601 71.5 45.0937 71.5C52.5761 71.5 63.6926 69.3077 68.7437 74.9012C72.9185 79.5242 80.9365 81 87.0346 81C91.288 81 90.9957 80.3455 90.9957 76.1914C90.9957 73.2156 89.6554 68.9966 86.8016 68.0988C84.512 67.3785 84.3497 65.1843 82.6076 63.7593C81.1057 62.5308 79.0147 61.8042 77.3067 60.9444C74.4493 59.5062 66.9958 56.8899 63.9671 57.5432C57.0913 59.0265 48.742 57.7778 41.7152 57.7778C38.8281 57.7778 36.4696 59.8889 33.094 59.8889C28.4107 59.8889 26.6064 57.3182 22.8417 54.6111C19.6541 52.319 16.3073 50.5761 16.5506 46.1667C16.6561 44.2545 22.8659 45.1111 24.3563 45.1111C29.0329 45.1111 40.9282 42.9942 44.3947 46.1667C47.1425 48.6814 64.0782 48.1793 66.8215 46.108C74.8662 40.034 69.3897 34.5556 61.1711 34.5556C56.375 34.5556 46.7723 36.4143 42.3559 34.4383C41.0661 33.8612 39.5661 30.3524 39.6181 29.0432C39.7718 25.1764 44.4664 26.9091 46.4918 25.0556C51.01 20.9205 49.733 10.5877 46.9578 5" stroke="black" stroke-width="10" stroke-linecap="round"/>
</svg>
